<svg width="154" height="154" viewBox="0 0 154 154" fill="none" xmlns="http://www.w3.org/2000/svg">
<path d="M21.6029 109.475L10.3904 114.928L8.93325 111.934L13.1969 109.861L11.0722 105.496L6.80856 107.57L5.35142 104.576L16.5639 99.1239L18.021 102.117L13.477 104.327L15.6017 108.692L20.1457 106.482L21.6029 109.475Z" fill="#272727"/>
<path d="M15.9343 96.8382L3.87849 100.02L1.66236 91.6333L4.08938 90.9927L5.53049 96.4467L7.84647 95.8353L6.57712 91.0314L9.00414 90.3907L10.2735 95.1947L12.7322 94.5457L11.2325 88.8697L13.6595 88.229L15.9343 96.8382Z" fill="#272727"/>
<path d="M12.8442 82.618L0.375202 82.6796L0.319092 71.3321L12.7881 71.2705L12.8045 74.5994L3.00982 74.6477L3.03301 79.3376L12.8277 79.2892L12.8442 82.618Z" fill="#272727"/>
<path d="M14.5361 63.1947C14.3271 64.1561 13.9794 65.0092 13.4929 65.7537C13.0088 66.4877 12.4196 67.0869 11.7254 67.5514C11.0312 68.016 10.2633 68.3303 9.42173 68.4943C8.5718 68.6453 7.68189 68.6199 6.75199 68.418C5.85416 68.223 5.05646 67.8764 4.35888 67.3781C3.65061 66.8774 3.07826 66.2665 2.64183 65.5452C2.1947 64.8216 1.8979 64.0244 1.75142 63.1536C1.60494 62.2827 1.63389 61.3772 1.83825 60.4371C2.04726 59.4757 2.39384 58.628 2.87798 57.8941C3.36445 57.1495 3.95479 56.5449 4.649 56.0804C5.34322 55.6158 6.11529 55.3081 6.96522 55.157C7.80678 54.993 8.69251 55.0119 9.62241 55.2138C10.5202 55.4088 11.3233 55.7566 12.0316 56.2572C12.7291 56.7555 13.3015 57.3665 13.7486 58.09C14.185 58.8113 14.4765 59.6074 14.623 60.4782C14.7695 61.3491 14.7405 62.2546 14.5361 63.1947ZM11.6984 62.5784C11.8354 61.9481 11.8077 61.3548 11.6152 60.7983C11.4228 60.2419 11.0949 59.768 10.6315 59.3765C10.1575 58.9827 9.58376 58.7127 8.91039 58.5664C8.22633 58.4179 7.59224 58.4256 7.00812 58.5896C6.41332 58.7513 5.91286 59.0454 5.50676 59.4718C5.09229 59.8852 4.81538 60.4124 4.67604 61.0534C4.53902 61.6837 4.56674 62.2771 4.75919 62.8335C4.95163 63.3899 5.27954 63.8638 5.74289 64.2553C6.20624 64.6468 6.77995 64.9168 7.46401 65.0654C8.14807 65.2139 8.78751 65.2074 9.38231 65.0457C9.96643 64.8816 10.4669 64.5876 10.8837 64.1635C11.2898 63.7371 11.5613 63.2087 11.6984 62.5784Z" fill="#272727"/>
<path d="M16.5389 54.5893L5.21813 49.3651L6.61427 46.3428L10.9191 48.3294L12.9549 43.9226L8.65001 41.936L10.0462 38.9137L21.3669 44.1379L19.9707 47.1602L15.3829 45.043L13.3471 49.4499L17.935 51.567L16.5389 54.5893Z" fill="#272727"/>
<path d="M22.7412 42.2437L12.6562 34.9146L15.3288 31.2407C15.9206 30.4273 16.5703 29.8316 17.2779 29.4538C17.9831 29.0607 18.7081 28.8914 19.4527 28.946C20.1974 29.0006 20.9236 29.285 21.6313 29.7993C22.7106 30.5837 23.3058 31.5501 23.4169 32.6987C23.5191 33.8408 23.1232 35.0264 22.2291 36.2554L21.409 37.3828L24.5937 39.6972L22.7412 42.2437ZM16.99 33.0562L16.4594 33.7857L19.4451 35.9555L19.9757 35.226C20.8248 34.0589 20.7495 33.1121 19.7499 32.3856C18.759 31.6656 17.8391 31.8891 16.99 33.0562Z" fill="#272727"/>
<path d="M28.4048 34.3401L23.4925 21.8865L26.0034 19.5523L38.0756 25.3497L35.5288 27.7174L32.8422 26.251L29.5264 29.3334L30.7954 32.1176L28.4048 34.3401ZM28.4398 26.9619L30.5542 24.9963L26.5136 22.7732L28.4398 26.9619Z" fill="#272727"/>
<path d="M39.3816 24.6332L32.8317 14.0284L36.9781 11.4701C38.188 10.7236 39.2484 10.3905 40.1593 10.4709C41.0795 10.5455 41.8153 11.0293 42.3669 11.9224C42.6714 12.4154 42.828 12.929 42.8366 13.4633C42.8546 13.9918 42.7173 14.4876 42.4249 14.9507C43.0996 14.7528 43.7453 14.7784 44.3619 15.0275C44.9785 15.2766 45.4821 15.7174 45.8728 16.35C46.4991 17.3639 46.6455 18.3399 46.3122 19.2779C45.9732 20.2065 45.1614 21.0671 43.877 21.8596L39.3816 24.6332ZM37.944 13.5335L36.548 14.3949L38.0217 16.781L39.4038 15.9282C40.3345 15.354 40.5471 14.6575 40.0415 13.8389C39.5646 13.0668 38.8655 12.965 37.944 13.5335ZM40.8991 17.5687L39.1679 18.6368L40.7192 21.1485L42.5062 20.0459C43.4462 19.4659 43.6577 18.7573 43.1406 17.9201C42.6235 17.0829 41.8763 16.9658 40.8991 17.5687Z" fill="#272727"/>
<path d="M49.4891 18.6107L45.1318 6.93373L47.9603 5.87935L50.6377 13.0546L53.3253 3.87946L55.9232 2.91104L60.2805 14.588L57.4673 15.6367L54.7784 8.43075L52.087 17.6423L49.4891 18.6107Z" fill="#272727"/>
<path d="M65.6404 13.6959L64.1111 4.02615L60.3352 4.62268L59.9177 1.98254L70.7592 0.269742L71.1768 2.90989L67.4009 3.50642L68.9301 13.1761L65.6404 13.6959Z" fill="#272727"/>
<path d="M80.2956 12.9937C78.9072 12.9496 77.7128 12.6547 76.7124 12.1089C75.7233 11.5525 74.9705 10.7903 74.4541 9.82231C73.9377 8.85434 73.7003 7.71476 73.742 6.40355C73.7722 5.45293 73.9638 4.58946 74.3167 3.81315C74.6806 3.03719 75.1723 2.37465 75.7916 1.82555C76.4222 1.26586 77.1578 0.846235 77.9984 0.566658C78.8502 0.276501 79.779 0.147384 80.7848 0.179306C81.4954 0.20186 82.2032 0.311827 82.9083 0.509208C83.6243 0.706936 84.2235 0.961117 84.7061 1.27175L84.0944 3.99223C83.5886 3.72461 83.0591 3.51093 82.5061 3.35118C81.9531 3.19144 81.4196 3.10342 80.9058 3.08711C79.7907 3.05172 78.895 3.34595 78.2185 3.9698C77.5534 4.58308 77.2038 5.42513 77.1698 6.49594C77.1358 7.56676 77.4312 8.42927 78.0561 9.0835C78.6922 9.72713 79.5733 10.0668 80.6993 10.1026C81.2241 10.1192 81.8063 10.0502 82.4459 9.89549C83.0859 9.72986 83.673 9.50787 84.2071 9.2295L84.4603 12.1087C83.9477 12.3987 83.3113 12.6246 82.551 12.7864C81.7908 12.9482 81.039 13.0173 80.2956 12.9937Z" fill="#272727"/>
<path d="M85.4623 13.1086L89.4995 9.21432C88.9663 8.73822 88.583 8.1665 88.3498 7.49917C88.1189 6.82117 88.092 6.08187 88.2691 5.28129C88.458 4.42733 88.828 3.74215 89.3791 3.22575C89.9432 2.70103 90.6036 2.34873 91.3603 2.16886C92.1277 1.99135 92.9173 1.99227 93.729 2.17163L98.5189 3.23006L95.8272 15.3989L92.7514 14.7193L93.6155 10.8124L92.1417 10.4867L88.9867 13.8874L85.4623 13.1086ZM93.0628 8.22153L94.1362 8.4587L94.9224 4.90411L93.8812 4.67402C92.4714 4.36251 91.6355 4.79918 91.3734 5.98404C91.1113 7.16891 91.6744 7.91473 93.0628 8.22153Z" fill="#272727"/>
<path d="M106.878 20.4117C105.637 19.7884 104.677 19.0189 103.999 18.1034C103.335 17.1829 102.973 16.1751 102.911 15.0798C102.85 13.9846 103.114 12.8508 103.703 11.6786C104.13 10.8287 104.667 10.1258 105.314 9.56965C105.971 9.01846 106.695 8.62385 107.488 8.38583C108.296 8.14294 109.14 8.07124 110.02 8.17072C110.915 8.26534 111.812 8.53842 112.711 8.98995C113.347 9.30897 113.943 9.70614 114.499 10.1815C115.066 10.6617 115.503 11.1441 115.81 11.6287L114.111 13.8401C113.764 13.3848 113.374 12.9685 112.939 12.5912C112.504 12.2139 112.057 11.9099 111.598 11.6792C110.601 11.1786 109.665 11.0692 108.789 11.3511C107.927 11.6281 107.256 12.2453 106.775 13.2026C106.293 14.1599 106.199 15.0666 106.49 15.9228C106.797 16.7741 107.454 17.4525 108.46 17.958C108.929 18.1936 109.487 18.3756 110.132 18.5039C110.782 18.6225 111.408 18.6677 112.01 18.6396L111.029 21.3584C110.442 21.4062 109.77 21.3437 109.012 21.1712C108.254 20.9986 107.543 20.7454 106.878 20.4117Z" fill="#272727"/>
<path d="M111.273 22.3978L122.823 15.6197L125.518 17.7377L121.657 30.5556L118.922 28.4072L119.956 25.5274L116.396 22.7304L113.84 24.4144L111.273 22.3978ZM118.571 21.2904L120.842 23.074L122.414 18.74L118.571 21.2904Z" fill="#272727"/>
<path d="M122.752 31.8231L132.385 23.9102L134.302 26.2413L128.382 31.1036L137.937 30.6627L139.698 32.8038L130.065 40.7167L128.158 38.3983L134.103 33.5152L124.512 33.9642L122.752 31.8231ZM136.625 27.8781C135.951 27.0588 135.607 26.2446 135.593 25.4354C135.587 24.6194 135.914 23.9406 136.573 23.3992C136.641 23.3437 136.699 23.3028 136.748 23.2765L138.165 24.9995L138.076 25.0724C137.82 25.3114 137.681 25.5813 137.659 25.8821C137.638 26.1829 137.745 26.4768 137.981 26.764C138.224 27.0596 138.495 27.2259 138.795 27.263C139.094 27.3 139.387 27.2082 139.673 26.9876L139.749 26.9251L141.165 28.6481C141.13 28.6913 141.079 28.7406 141.011 28.7961C140.352 29.3375 139.622 29.5264 138.822 29.3628C138.038 29.2007 137.305 28.7058 136.625 27.8781Z" fill="#272727"/>
<path d="M132.766 45.6346L141.42 41.0491L139.63 37.6734L141.992 36.4214L147.134 46.114L144.771 47.366L142.98 43.9902L134.326 48.5757L132.766 45.6346Z" fill="#272727"/>
<path d="M140.962 55.4837L143.279 54.8154L144.735 59.8572L142.417 60.5254L140.962 55.4837Z" fill="white"/>
<path d="M140.29 67.2813L152.724 66.3476L153.089 71.2042C153.196 72.6214 153.004 73.7156 152.513 74.487C152.024 75.2692 151.255 75.6997 150.208 75.7783C149.63 75.8217 149.102 75.7244 148.623 75.4862C148.145 75.259 147.768 74.9091 147.491 74.4366C147.357 75.1264 147.037 75.6876 146.532 76.1202C146.027 76.5527 145.404 76.7969 144.662 76.8526C143.473 76.9419 142.539 76.6228 141.859 75.8955C141.19 75.1674 140.799 74.0511 140.686 72.5467L140.29 67.2813ZM150.812 71.1121L150.689 69.4769L147.891 69.687L148.013 71.3058C148.095 72.396 148.616 72.905 149.575 72.8329C150.481 72.7649 150.893 72.1913 150.812 71.1121ZM145.867 71.878L145.715 69.8504L142.77 70.0715L142.927 72.1646C143.01 73.2656 143.542 73.7793 144.524 73.7056C145.506 73.6319 145.954 73.0227 145.867 71.878Z" fill="white"/>
<path d="M140.909 78.7786L153.319 79.9921L152.474 88.6255L149.976 88.3812L150.525 82.767L148.141 82.5339L147.657 87.479L145.159 87.2347L145.643 82.2896L143.112 82.0421L142.54 87.8848L140.042 87.6405L140.909 78.7786Z" fill="white"/>
<path d="M139.621 89.6343L151.643 92.9399L150.438 97.3195C150.171 98.2893 149.773 99.0756 149.244 99.6785C148.723 100.295 148.104 100.709 147.388 100.92C146.672 101.131 145.892 101.121 145.048 100.889C143.762 100.535 142.864 99.8404 142.355 98.8047C141.856 97.7719 141.809 96.523 142.212 95.0578L142.582 93.7139L138.785 92.67L139.621 89.6343ZM148.243 96.2058L148.483 95.3362L144.923 94.3576L144.684 95.2272C144.301 96.6186 144.705 97.4781 145.897 97.8057C147.078 98.1305 147.86 97.5972 148.243 96.2058Z" fill="white"/>
<path d="M136.572 100.256L147.734 105.81L146.25 108.79L142.005 106.678L139.841 111.023L144.085 113.135L142.601 116.115L131.439 110.561L132.923 107.581L137.447 109.832L139.611 105.487L135.087 103.236L136.572 100.256Z" fill="white"/>
<path d="M129.908 112.657L139.769 120.285L134.457 127.145L132.472 125.609L135.926 121.148L134.032 119.683L130.989 123.612L129.004 122.076L132.047 118.147L130.036 116.591L126.441 121.234L124.456 119.698L129.908 112.657Z" fill="white"/>
<path d="M123.357 121.119L131.421 130.625L128.743 132.894L121.691 129.754L123.637 137.221L121.022 139.438L112.958 129.932L115.286 127.959L120.326 133.9L118.905 128.397L120.857 126.742L126.091 129.058L121.03 123.092L123.357 121.119Z" fill="white"/>
<path d="M107.448 129.991L109.648 135.151L108.305 135.723C108.134 136.271 108.125 136.904 108.277 137.624C108.42 138.348 108.731 139.273 109.211 140.399L111.225 145.121L102.093 149.011L98.2529 140.005L96.6228 140.699L94.4228 135.54L97.366 134.286L98.5174 136.987L105.672 133.939L104.52 131.239L107.448 129.991ZM106.271 141.367C105.85 140.381 105.553 139.545 105.38 138.858C105.206 138.172 105.139 137.57 105.181 137.054L101.241 138.732L104.033 145.279L107.339 143.871L106.271 141.367Z" fill="white"/>
<path d="M93.7001 138.546L96.1981 150.756L87.6949 152.494L87.192 150.036L92.7215 148.906L92.2416 146.56L87.3712 147.555L86.8683 145.097L91.7387 144.102L91.2293 141.612L85.4747 142.788L84.9718 140.33L93.7001 138.546Z" fill="white"/>
<path d="M83.0675 140.613L83.175 153.075L79.8445 153.104L79.8037 148.365L74.9475 148.407L74.9883 153.146L71.6579 153.175L71.5504 140.712L74.8809 140.684L74.9244 145.734L79.7806 145.692L79.7371 140.642L83.0675 140.613Z" fill="white"/>
<path d="M69.2807 140.372L66.9441 152.614L63.8498 152.024L64.5877 148.158L62.9438 147.845C61.9554 147.656 61.1394 147.323 60.4959 146.844C59.8503 146.376 59.3946 145.788 59.1287 145.081C58.8608 144.384 58.8089 143.606 58.9729 142.747C59.1389 141.877 59.4758 141.162 59.9835 140.603C60.4891 140.053 61.1283 139.68 61.901 139.482C62.6736 139.285 63.5542 139.28 64.5426 139.469L69.2807 140.372ZM63.8985 145.556L65.0427 145.774L65.7345 142.15L64.5902 141.932C63.172 141.661 62.3471 142.133 62.1155 143.346C61.8859 144.549 62.4802 145.286 63.8985 145.556Z" fill="white"/>
<path d="M57.7972 137.882L53.4111 149.548L45.3327 146.514L46.2734 144.012L51.2341 145.875L54.6794 136.711L57.7972 137.882Z" fill="white"/>
<path d="M48.146 134.147L41.6628 144.792L39.0841 143.224L43.0678 136.682L34.193 140.248L31.8245 138.807L38.3076 128.161L40.8723 129.722L36.8715 136.291L45.7775 132.706L48.146 134.147Z" fill="white"/>
</svg>
