<svg xmlns="http://www.w3.org/2000/svg">
    <symbol id="icon-ar" viewBox="0 0 17 32">
        <g>
            <path d="M13.6313 30.8865L0.430875 17.1451C0.274193 16.9815 0.163471 16.8043 0.0987093 16.6135C0.0329028 16.4226 0 16.2181 0 16C0 15.7819 0.0329028 15.5774 0.0987093 15.3865C0.163471 15.1957 0.274193 15.0185 0.430875 14.8549L13.6313 1.07256C13.9969 0.690853 14.4539 0.5 15.0023 0.5C15.5507 0.5 16.0207 0.704485 16.4124 1.11346C16.8041 1.52243 17 1.99956 17 2.54485C17 3.09015 16.8041 3.56728 16.4124 3.97625L4.89631 16L16.4124 28.0237C16.778 28.4055 16.9608 28.8755 16.9608 29.4339C16.9608 29.9933 16.765 30.4776 16.3733 30.8865C15.9816 31.2955 15.5246 31.5 15.0023 31.5C14.48 31.5 14.023 31.2955 13.6313 30.8865Z"/>
        </g>
    </symbol>
    <symbol id="icon-vk" viewBox="0 0 40 40">
        <g>
            <path fill-rule="evenodd" clip-rule="evenodd" d="M8 0C3.58172 0 0 3.58172 0 8V32C0 36.4183 3.58172 40 8 40H32C36.4183 40 40 36.4183 40 32V8C40 3.58172 36.4183 0 32 0H8ZM31.489 12C32.3809 12 32.5696 12.4584 32.3809 13.0835C32.0064 14.8029 28.4074 19.8602 28.4061 19.8588C28.0948 20.3589 27.9682 20.6076 28.4061 21.1709C28.5608 21.3862 28.8897 21.7077 29.2661 22.0757C29.6533 22.4542 30.0908 22.8818 30.4407 23.2936C31.7099 24.7172 32.6666 25.9203 32.932 26.7471C33.1746 27.5779 32.7528 27.9987 31.9093 27.9987H28.9558C28.1655 27.9987 27.7668 27.5562 26.9056 26.6006C26.5407 26.1958 26.0928 25.6988 25.497 25.1044C23.744 23.4199 22.9922 23.1995 22.5556 23.1995C21.9614 23.1995 21.7822 23.3688 21.7822 24.2104V26.8533C21.7822 27.5792 21.5505 28 19.6735 28C16.5421 28 13.1049 26.1045 10.6634 22.608C7.00113 17.4875 6 13.6159 6 12.8335C6 12.3979 6.16843 12.0013 7.01325 12.0013H9.96677C10.7213 12.0013 11.0056 12.3307 11.2872 13.1467C12.733 17.3463 15.1691 21.015 16.1702 21.015C16.5475 21.015 16.7186 20.8415 16.7186 19.8911V15.5517C16.6511 14.3145 16.2182 13.7797 15.8977 13.3839C15.7 13.1397 15.5451 12.9483 15.5451 12.6775C15.5451 12.3468 15.828 12 16.2969 12H20.9401C21.5666 12 21.7836 12.3334 21.7836 13.0835V18.9219C21.7836 19.547 22.0557 19.7647 22.243 19.7647C22.6176 19.7647 22.9316 19.547 23.6187 18.8573C25.7476 16.4873 27.25 12.8321 27.25 12.8321C27.4386 12.3966 27.7822 12 28.5341 12H31.489Z"/>
        </g>
    </symbol>
    <symbol id="icon-gl" viewBox="0 0 40 40">
        <g>
            <path fill-rule="evenodd" clip-rule="evenodd" d="M8 0C3.58172 0 0 3.58172 0 8V32C0 36.4183 3.58172 40 8 40H32C36.4183 40 40 36.4183 40 32V8C40 3.58172 36.4183 0 32 0H8ZM11.3683 11.3683C13.5249 9.2116 16.45 8 19.5 8C22.55 8 25.4751 9.2116 27.6317 11.3683C29.7884 13.5249 31 16.45 31 19.5C31 22.55 29.7884 25.4751 27.6317 27.6317C25.4751 29.7884 22.55 31 19.5 31C16.45 31 13.5249 29.7884 11.3683 27.6317C9.2116 25.4751 8 22.55 8 19.5C8 16.45 9.2116 13.5249 11.3683 11.3683ZM12.6256 20.3689H9.41833C9.5205 21.5654 9.83643 22.7339 10.3511 23.8189H13.1111C12.8389 22.6868 12.6767 21.5317 12.6256 20.3689ZM20.3689 9.52056V13.4689L23.8956 13.4561C23.6988 12.9808 23.4675 12.5195 23.2056 12.0761C22.6121 10.9001 21.6003 9.98851 20.3689 9.52056ZM25.0072 18.6439C24.9561 17.4786 24.7798 16.3222 24.4833 15.1939H20.3689V18.6439H25.0072ZM18.6311 13.4689V9.52056C17.3975 9.99162 16.3854 10.908 15.7944 12.0889C15.5321 12.532 15.3016 12.9932 15.1044 13.4689H18.6311ZM18.6311 18.6439V15.1939H14.5294C14.233 16.3222 14.0567 17.4786 14.0056 18.6439H18.6311ZM9.41833 18.6311H12.6256C12.6758 17.4681 12.8384 16.3128 13.1111 15.1811H10.3511C9.83643 16.2661 9.5205 17.4346 9.41833 18.6311ZM18.6311 20.3689H14.0056C14.0574 21.5342 14.233 22.6907 14.5294 23.8189H18.6311V20.3689ZM18.6439 29.4283V25.48L15.1172 25.4928C15.3143 25.9685 15.5449 26.4297 15.8072 26.8728C16.4007 28.0488 17.4125 28.9604 18.6439 29.4283ZM20.3689 25.5439V29.4283V29.4794C21.6003 29.0115 22.6121 28.0999 23.2056 26.9239C23.4679 26.4808 23.6984 26.0196 23.8956 25.5439H20.3689ZM20.3689 20.305V23.755H24.4706C24.767 22.6268 24.9426 21.4703 24.9944 20.305H20.3689ZM29.5944 20.305H26.3872L26.3744 20.3689C26.3195 21.5099 26.1572 22.6433 25.8889 23.755H28.6617C29.1763 22.67 29.4923 21.5015 29.5944 20.305ZM25.8889 15.1939C26.1618 16.3043 26.3287 17.4381 26.3872 18.58L29.5817 18.6439C29.4794 17.4479 29.1638 16.28 28.6489 15.1939H25.8889ZM25.3778 13.4689H27.6139C26.5729 12.0711 25.1917 10.9626 23.6017 10.2489C24.3641 11.219 24.9639 12.3065 25.3778 13.4689ZM13.6222 13.4689C14.0361 12.3065 14.6359 11.219 15.3983 10.2489C13.8083 10.9626 12.4271 12.0711 11.3861 13.4689H13.6222ZM11.4144 25.5822H13.6222C14.0361 26.7446 14.6359 27.8321 15.3983 28.8022C13.8183 28.0843 12.4474 26.9761 11.4144 25.5822ZM23.6431 28.7327C25.21 28.0327 26.5756 26.9493 27.6139 25.5822H25.365C24.961 26.7169 24.3798 27.7803 23.6431 28.7327Z"/>
        </g>
    </symbol>
</svg>