<svg width="129" height="100" viewBox="0 0 129 100" fill="none" xmlns="http://www.w3.org/2000/svg">
<g clip-path="url(#clip0_1412_622)">
<path d="M1.8125 32.3236L43.5354 1.44158L54.366 1.20947L64.625 4.59941L127.827 19.4724L89.6125 48.8945L1.8125 32.3236Z" fill="#FFD508"/>
<path d="M63.7607 23.4547C63.7607 23.4547 69.0027 38.0528 80.636 36.7396C80.636 36.7396 93.522 34.5652 83.8834 22.1415C83.8834 22.1415 71.9095 18.6477 67.6345 21.0543C67.6345 21.0543 77.9542 23.5158 77.8387 27.7547C77.8387 27.7547 74.7616 33.0198 68.6622 26.9546L63.7607 23.4608V23.4547Z" fill="#65DBBD" stroke="#231F20" stroke-width="0.76" stroke-miterlimit="10"/>
<path d="M59.0181 28.8359C59.0181 28.8359 60.8971 37.5459 68.0243 30.253L71.6547 35.115C71.6547 35.115 67.0878 44.4296 57.4734 38.4927L52.7666 33.4291L59.0181 28.842V28.8359Z" fill="#65DBBD" stroke="#231F20" stroke-width="0.76" stroke-miterlimit="10"/>
<path d="M35.9338 20.3825L24.0146 24.2855L31.0323 27.1746L24.2275 33.2459L37.5392 30.6561C37.5392 30.6561 36.1892 24.4565 38.2142 21.5736C38.2142 21.5736 38.7189 19.619 35.9338 20.3825Z" fill="#65DBBD" stroke="#231F20" stroke-width="0.76" stroke-miterlimit="10"/>
<path d="M63.0438 19.5699C63.0438 19.5699 50.1456 12.3747 40.6529 18.22C40.6529 18.22 33.6657 24.2486 39.759 32.6166C39.759 32.6166 46.9226 39.9034 58.3917 29.5565C58.3917 29.5565 62.0648 23.8882 62.0648 22.8071C62.0648 22.8071 51.9457 31.3522 46.6611 25.9589C46.6611 25.9589 44.5145 20.3823 56.1539 20.5594L61.931 21.0602L63.0499 19.5699H63.0438Z" fill="#65DBBD" stroke="#231F20" stroke-width="0.76" stroke-miterlimit="10"/>
<path d="M81.4148 16.0641L93.3947 14.812L90.1473 19.0082L95.3285 20.071L85.2824 24.0168C85.2824 24.0168 81.8526 20.6329 80.5391 20.9444L81.4148 16.058V16.0641Z" fill="#65DBBD" stroke="#231F20" stroke-width="0.76" stroke-miterlimit="10"/>
<path d="M61.9189 21.0602C61.9189 21.0602 64.8866 4.82512 77.7057 7.83636C77.7057 7.83636 86.8943 14.1276 78.1739 20.7731L71.9468 20.5349C71.9468 20.5349 76.7388 15.337 73.8137 12.2097C73.8137 12.2097 68.1096 11.2935 67.1974 17.6947L64.0352 21.5916L61.9189 21.0602Z" fill="#65DBBD" stroke="#231F20" stroke-width="0.76" stroke-miterlimit="10"/>
<path d="M44.6422 14.8975C44.6422 14.8975 38.5002 0.946844 55.1383 1.19116C55.1383 1.19116 62.2472 0.62312 65.3121 12.0573C65.3121 12.0573 62.9708 16.8398 61.9188 21.0605C61.9188 21.0605 59.7478 11.587 56.8349 10.0355C56.8349 10.0355 53.5511 6.81662 51.0456 10.3043C51.0456 10.3043 53.0342 16.2718 55.8619 17.0842L44.6361 14.8914L44.6422 14.8975Z" fill="#65DBBD" stroke="#231F20" stroke-width="0.76" stroke-miterlimit="10"/>
<path d="M87.0762 98.8759L88.6208 48.1063L127.042 19.2583L128.288 40.453L124.329 45.8342L124.293 68.6842L87.0762 98.8759Z" fill="#FFD508"/>
<path d="M4.18385 75.7025L2.06152 32.5557L89.6122 48.1677L87.0764 98.8762L40.2391 87.4909L4.18385 75.7025Z" fill="#FFD508"/>
<path d="M104.985 38.4621V84.5835L111.559 79.3673V31.5112L104.985 38.4621Z" fill="#65DBBD"/>
<path d="M104.985 38.4618L86.9849 32.5187L86.8086 23.6255L111.863 31.1689L104.985 38.4618Z" fill="#65DBBD"/>
<path d="M58.3971 27.962C58.2511 29.7334 58.7133 31.8162 59.9539 33.1233C61.0424 34.2716 62.7208 34.6381 64.235 34.3327C65.5607 34.0639 66.631 33.1111 67.3425 31.9872C67.7499 31.3459 68.0844 30.5946 68.2547 29.8433C68.3884 29.2508 68.0783 28.5606 67.4459 28.4201C66.8621 28.2858 66.1688 28.5973 66.029 29.2325C65.9985 29.373 65.956 29.5074 65.9134 29.6417C65.8708 29.7761 65.81 29.9166 65.7614 30.0571C65.6945 30.2525 65.8891 29.7761 65.7979 29.9716C65.7796 30.0021 65.7675 30.0388 65.7553 30.0693C65.7067 30.1731 65.658 30.277 65.6033 30.3808C65.506 30.5702 65.3965 30.7534 65.281 30.9244C65.2323 31.0038 65.0499 31.3275 65.2262 31.016C65.1593 31.126 65.0438 31.2359 64.9587 31.3275C64.8796 31.4131 64.7945 31.4986 64.7093 31.5719C64.6546 31.6207 64.5999 31.6635 64.5451 31.7123C64.5695 31.694 64.7702 31.5658 64.606 31.6635C64.5026 31.7246 64.4053 31.7979 64.2958 31.8589C64.2289 31.8956 64.162 31.9261 64.0951 31.9628C63.9005 32.0727 64.3201 31.8956 64.0891 31.9628C63.9614 31.9994 63.8397 32.0422 63.712 32.0727C63.6451 32.0849 63.5722 32.091 63.5113 32.1094C63.3532 32.1582 63.7972 32.0972 63.5235 32.1094C63.3715 32.1094 63.2255 32.1216 63.0735 32.1155C62.9944 32.1155 62.9154 32.0972 62.8363 32.0972C62.7451 32.0849 62.7694 32.0972 62.9093 32.1094C62.8485 32.1033 62.7938 32.091 62.739 32.0788C62.6053 32.0483 62.4654 32.0177 62.3377 31.9689C62.3194 31.9628 62.0701 31.865 62.2525 31.9445C62.435 32.0239 62.1978 31.9139 62.1796 31.9078C62.0701 31.8528 61.9667 31.7795 61.8573 31.7185C61.6444 31.6024 61.9971 31.8528 61.8877 31.749C61.8269 31.6879 61.76 31.6391 61.6992 31.5841C61.614 31.5047 61.541 31.4069 61.462 31.3275C61.3221 31.1871 61.5046 31.3886 61.5106 31.3947C61.462 31.3581 61.4255 31.2726 61.389 31.2237C61.3282 31.126 61.2674 31.0283 61.2127 30.9244C61.1883 30.8817 61.1701 30.845 61.1518 30.8023C61.1093 30.7167 60.939 30.4846 61.1275 30.7656C60.8964 30.4236 60.8295 29.8311 60.7627 29.428C60.7566 29.3852 60.7505 29.3486 60.7444 29.3058C60.7079 29.0859 60.7748 29.6173 60.7505 29.3486C60.7444 29.2447 60.7322 29.147 60.7201 29.0432C60.7079 28.8538 60.6958 28.6645 60.6958 28.4812C60.6958 28.3102 60.6958 28.1331 60.7079 27.962C60.7566 27.3574 60.1424 26.7771 59.5525 26.8015C58.8836 26.8321 58.4518 27.3085 58.3971 27.962Z" fill="#231F20"/>
<path d="M38.2255 29.465C34.0599 30.2407 29.8943 31.0164 25.7226 31.7921C25.1206 31.9021 24.5186 32.0181 23.9165 32.1281L25.0416 34.0643C27.6565 31.9387 30.2714 29.8131 32.8863 27.6937C33.5795 27.1317 33.1538 25.9651 32.3755 25.7574C29.4504 24.9756 26.5314 24.1877 23.6064 23.4059V25.6414C28.1369 24.3648 32.6613 23.0821 37.1917 21.8056C37.8303 21.6223 38.4749 21.4452 39.1134 21.262C40.5425 20.8588 39.9344 18.6233 38.4992 19.0264C33.9687 20.303 29.4443 21.5857 24.9139 22.8623C24.2753 23.0455 23.6307 23.2226 22.9922 23.4059C21.9037 23.7113 21.8854 25.3421 22.9922 25.6414C25.9172 26.4232 28.8362 27.2111 31.7613 27.993L31.2504 26.0567C28.6355 28.1823 26.0206 30.3079 23.4057 32.4274C22.4206 33.2275 23.5213 34.5529 24.5307 34.3636C28.6963 33.5879 32.8619 32.8122 37.0336 32.0365C37.6357 31.9265 38.2377 31.8105 38.8397 31.7005C40.2992 31.4318 39.6789 29.1962 38.2255 29.465Z" fill="#231F20"/>
<path d="M105.386 38.8711C107.302 36.8432 109.217 34.8215 111.133 32.7936C111.407 32.5004 111.686 32.2073 111.96 31.9141C112.465 31.3766 111.662 30.5642 111.151 31.1017C109.236 33.1296 107.32 35.1513 105.404 37.1792C105.131 37.4724 104.851 37.7655 104.577 38.0587C104.073 38.5962 104.875 39.4086 105.386 38.8711Z" fill="#231F20"/>
<path d="M63.499 20.8036C61.1639 18.1466 57.7098 16.1554 54.3469 15.2025C50.984 14.2497 47.7488 14.4146 44.544 15.3613C41.8257 16.1676 39.2291 17.5541 37.5446 19.8996C36.1094 21.903 35.7385 24.4134 36.0912 26.8077C36.4743 29.3975 37.6784 32.2805 39.6791 34.0213C41.9352 35.9758 44.8542 36.3056 47.7062 35.8781C49.1475 35.6643 50.5583 35.2673 51.9326 34.7909C53.307 34.3144 54.8516 33.783 56.1347 32.9707C59.899 30.5886 62.5139 26.1358 63.797 21.9274C64.2349 20.4982 62.0031 19.8874 61.5713 21.3105C60.6835 24.2301 58.9929 27.3513 56.682 29.5991C54.809 31.4193 52.3583 32.2927 49.8955 33.0134C47.6454 33.6731 45.0244 34.1923 42.7683 33.27C40.5122 32.3477 39.3203 30.0266 38.6757 27.8155C38.1345 25.9648 38.025 23.9003 38.9007 22.1351C39.898 20.1256 41.8196 18.8124 43.8629 18.0366C46.6359 16.98 49.6583 16.5585 52.5772 17.1571C56.0739 17.8717 59.5402 19.7896 61.8693 22.4405C62.8544 23.5644 64.4781 21.9152 63.499 20.8036Z" fill="#231F20"/>
<path d="M62.9887 20.5042C61.1461 20.211 59.2792 20.04 57.4184 19.9606C54.5967 19.8384 51.3554 19.8079 48.777 21.1272C47.281 21.8968 45.852 23.5032 45.8763 25.2745C45.9006 27.0458 47.427 28.4079 49.0689 28.8782C52.0608 29.7333 55.0163 28.0353 57.5096 26.545C59.4981 25.3539 61.4258 24.0407 63.2624 22.6236C63.7549 22.2449 64.0164 21.628 63.6759 21.0356C63.3901 20.5469 62.5934 20.2354 62.0948 20.6202C60.8117 21.6097 59.4738 22.5442 58.1177 23.4299C56.0683 24.7675 53.8487 26.2518 51.4588 26.7587C51.3858 26.7771 51.1365 26.8015 51.3433 26.7832C51.173 26.8015 51.0027 26.8015 50.8324 26.8015C50.4372 26.8015 50.0662 26.7465 49.6892 26.6427C49.1784 26.4961 48.6432 26.2273 48.3574 25.7754C47.7554 24.8286 48.9594 23.662 49.8412 23.1856C50.6561 22.7458 51.9331 22.4832 52.9852 22.3732C54.3291 22.2327 55.6852 22.2205 57.0292 22.2633C58.3731 22.306 59.6258 22.4099 60.915 22.5503C61.1461 22.5748 61.3711 22.6053 61.6022 22.6297C61.6995 22.642 61.7968 22.6542 61.888 22.6664C61.7177 22.642 62.1617 22.703 61.888 22.6664C62.0461 22.6908 62.2042 22.7091 62.3684 22.7336C62.9826 22.8313 63.609 22.5748 63.7853 21.9212C63.9374 21.3715 63.5968 20.5958 62.9765 20.4981L62.9887 20.5042Z" fill="#231F20"/>
<path d="M62.9882 22.7398C66.3815 21.8297 69.9572 21.3716 73.46 21.3044C77.6986 21.225 83.7737 21.5609 85.4521 26.3191C86.0359 27.9804 86.0663 29.7884 85.6345 31.4681C85.2575 32.9462 84.5399 34.4549 83.275 35.1818C81.4081 36.2568 78.854 35.7803 76.908 35.2184C74.6702 34.5771 72.3654 33.5265 70.6201 31.9506C68.668 30.1854 67.2815 27.7483 65.9923 25.4762C65.1714 24.0225 64.3869 22.5443 63.6754 21.0357C63.0429 19.6858 61.0544 20.8646 61.6808 22.2084C62.3071 23.5521 63.0551 24.9692 63.8092 26.3191C65.1227 28.6645 66.5457 31.0528 68.3944 33.0195C70.2431 34.9863 72.7181 36.2445 75.1931 37.118C77.6682 37.9914 80.575 38.5534 83.123 37.7532C87.3008 36.4461 88.6812 31.2482 88.067 27.3391C87.7204 25.1341 86.5953 23.0574 84.8379 21.6709C82.5514 19.8629 79.5412 19.3254 76.7073 19.0933C71.9701 18.7085 66.9531 19.2888 62.3619 20.5165C60.9267 20.9013 61.5348 23.1368 62.976 22.752L62.9882 22.7398Z" fill="#231F20"/>
<path d="M62.6841 22.7827C64.1679 22.8621 65.6882 23.0209 67.1295 23.2164C69.6653 23.5646 72.4687 24.0104 74.7492 25.0916C75.7343 25.5619 76.5614 26.0627 76.9384 27.095C76.9384 27.0889 76.9323 27.2232 76.9384 27.0828C76.9384 27.0034 76.9384 27.0278 76.9931 27.0217C76.981 27.0217 76.7499 27.2477 76.9019 27.1377C76.7864 27.2232 76.6587 27.2904 76.531 27.3515C76.1661 27.5164 75.4789 27.6203 74.9681 27.6386C74.3296 27.6569 73.6911 27.6142 73.0708 27.4553C72.9735 27.4309 72.8762 27.4004 72.7789 27.3698C72.7302 27.3515 72.4323 27.2416 72.6208 27.321C72.3836 27.2232 72.1464 27.1011 71.9214 26.9789C70.7478 26.3559 69.6471 25.5863 68.5707 24.8106C66.8315 23.5523 65.1409 22.2147 63.5051 20.816C62.3801 19.857 60.7382 21.4878 61.8753 22.4529C63.5537 23.8883 65.2869 25.2565 67.0687 26.5636C69.4038 28.2799 71.7937 30.0024 74.8039 29.9657C76.2391 29.9474 78.0634 29.6359 78.8905 28.3105C79.7844 26.8873 78.7628 25.171 77.656 24.2181C75.4668 22.3307 72.2073 21.726 69.4464 21.2557C67.2146 20.8709 64.9524 20.5961 62.6902 20.48C61.2064 20.4006 61.2125 22.7217 62.6902 22.7949L62.6841 22.7827Z" fill="#231F20"/>
<path d="M80.2527 21.4387C82.2838 19.252 83.0561 15.9109 82.6974 12.9913C82.3386 10.0717 80.6358 7.59796 77.7473 6.55349C74.652 5.43573 71.137 6.29696 68.4431 8.03773C65.5363 9.91289 63.4869 12.6676 62.4166 15.9476C61.8328 17.7311 61.4558 19.7345 61.5349 21.628C61.5957 23.1123 63.9065 23.1245 63.8396 21.628C63.6937 18.0915 65.068 14.103 67.689 11.562C69.7505 9.56473 72.6391 8.09271 75.5702 8.41643C77.7655 8.66075 79.6081 9.97397 80.198 12.1545C80.8669 14.616 80.3926 17.8899 78.6169 19.8017C77.6074 20.8889 79.2311 22.532 80.2466 21.4387H80.2527Z" fill="#231F20"/>
<path d="M71.1985 21.1396C72.2079 20.3212 73.1505 19.3928 73.9897 18.4033C75.3093 16.8457 76.781 14.6285 75.6681 12.5457C74.4519 10.2613 71.2836 11.0126 69.6052 12.2647C68.0727 13.4069 67.0085 15.1721 66.0538 16.803C65.3484 18.0062 64.6916 19.2401 64.1078 20.4983C63.8463 21.0663 63.9497 21.7504 64.5213 22.0864C65.02 22.3796 65.8349 22.2391 66.1024 21.671C66.5099 20.7976 66.9538 19.9364 67.416 19.0935C67.8356 18.3239 68.2795 17.5665 68.7538 16.8274C68.9849 16.467 69.2221 16.1189 69.4653 15.7707C69.5201 15.6974 69.7876 15.337 69.6842 15.4714C69.8241 15.2943 69.9701 15.1172 70.116 14.9461C70.3349 14.6957 70.566 14.4697 70.8093 14.2437C70.8579 14.201 71.0829 14.0483 70.8336 14.2193C70.9187 14.1582 71.0039 14.1032 71.089 14.0422C71.3383 13.8833 71.5998 13.7306 71.8674 13.6207C71.9829 13.5718 72.287 13.4802 72.4755 13.4375C72.5546 13.4191 72.6397 13.4008 72.7188 13.3886C72.4998 13.4191 72.8647 13.3886 72.8769 13.3886C72.9863 13.3886 73.0958 13.3886 73.2052 13.4008C72.9498 13.3825 73.26 13.4191 73.3025 13.4314C73.3634 13.4497 73.4302 13.468 73.4911 13.4924C73.1384 13.352 73.8012 13.6512 73.4667 13.4802C73.5032 13.4985 73.7039 13.7368 73.5397 13.523C73.5762 13.5718 73.6188 13.6329 73.6431 13.6879C73.7708 13.9566 73.6248 13.4802 73.6796 13.7856C73.6796 13.8039 73.7404 14.1521 73.7161 13.92C73.7282 14.0483 73.7161 14.1704 73.7221 14.2987C73.7221 14.5797 73.7221 14.372 73.7343 14.2987C73.6978 14.5125 73.6309 14.714 73.564 14.9217C73.4667 15.2149 73.6309 14.7934 73.5458 14.9706C73.5093 15.05 73.4728 15.1294 73.4302 15.2027C73.3269 15.3981 73.2174 15.5814 73.1019 15.7646C72.9985 15.9234 72.889 16.0822 72.7796 16.2349C72.7796 16.2349 72.5485 16.5342 72.6823 16.3693C72.5971 16.4792 72.512 16.5831 72.4269 16.6869C71.5694 17.7131 70.5964 18.672 69.5565 19.5149C69.07 19.9119 69.1491 20.7426 69.5565 21.1519C70.037 21.6344 70.6998 21.5489 71.1863 21.1519L71.1985 21.1396Z" fill="#231F20"/>
<path d="M66.2599 12.8999C65.7916 8.8381 64.1071 4.31818 60.7564 1.8078C59.4733 0.848847 58.0138 0.372423 56.4449 0.17086C54.3651 -0.0978917 52.2488 -0.0673518 50.1995 0.396855C47.0434 1.10538 44.021 3.01718 42.8656 6.1689C42.1723 8.05627 42.0142 10.4078 42.4946 12.3624C42.975 14.317 44.2947 15.905 45.9487 17.0656C47.165 17.9207 48.3204 15.9173 47.1163 15.0621C45.9123 14.207 45.067 13.1503 44.7203 11.7455C44.3737 10.3407 44.5501 8.65486 44.9514 7.22559C45.669 4.68466 48.2109 3.2615 50.613 2.68124C52.3097 2.27201 54.0732 2.23536 55.8063 2.41249C57.1199 2.54687 58.33 2.88281 59.4125 3.67685C61.1456 4.94731 62.2585 7.02402 62.9517 8.96636C63.2923 9.9131 63.5598 10.8843 63.7666 11.8677C63.8335 12.1792 63.8882 12.4907 63.9369 12.8022C63.9551 12.8999 63.9612 12.9976 63.9794 13.0954C63.9004 12.6434 63.9429 12.8022 63.9551 12.9121C64.0281 13.5351 64.4355 14.0726 65.1105 14.0726C65.6761 14.0726 66.3389 13.5412 66.266 12.9121L66.2599 12.8999Z" fill="#231F20"/>
<path d="M61.2495 19.063C61.0853 18.0063 60.8481 16.9558 60.5744 15.9174C60.0697 13.9629 59.4251 11.9594 58.367 10.2309C57.7589 9.22917 56.944 8.23967 55.8615 7.73882C54.7791 7.23796 53.6237 7.1891 52.5412 7.71439C51.5925 8.17249 50.8932 9.11312 50.6013 10.1148C50.279 11.2326 50.504 12.3503 50.9479 13.3948C51.6108 14.934 52.7845 16.3511 54.025 17.4688C54.4872 17.8842 55.1987 17.9269 55.6548 17.4688C56.0744 17.0474 56.123 16.2472 55.6548 15.8319C55.375 15.5815 55.1075 15.3066 54.8521 15.0318C54.5966 14.7569 54.3595 14.4881 54.1345 14.2011C54.1345 14.195 53.9095 13.9079 54.0433 14.085C53.9764 13.9934 53.9034 13.9018 53.8426 13.8041C53.7088 13.6147 53.575 13.4192 53.4534 13.2177C53.35 13.0528 53.2527 12.8817 53.1615 12.7046C53.1068 12.6008 53.0581 12.4969 53.0095 12.387C52.8574 12.0511 53.0703 12.5825 52.9547 12.2404C52.8939 12.0633 52.8392 11.8861 52.7966 11.709C52.7905 11.6785 52.7358 11.3303 52.7662 11.593C52.754 11.4525 52.748 11.312 52.754 11.1654C52.754 11.0921 52.7601 11.0188 52.7723 10.9455C52.7419 11.2082 52.7966 10.8661 52.8027 10.8356C52.827 10.7317 52.8635 10.634 52.8939 10.5363C52.8088 10.7745 52.9243 10.4752 52.9426 10.4447C52.973 10.3836 53.0095 10.3286 53.0459 10.2736C53.0703 10.237 53.2709 10.0049 53.1007 10.1881C53.1676 10.1148 53.2405 10.0476 53.3014 9.97434C53.4351 9.82164 53.1797 10.0232 53.4108 9.88883C53.4777 9.84607 53.5507 9.80943 53.6176 9.76667C53.8608 9.61397 53.423 9.80332 53.6966 9.73002C53.7879 9.70559 54.2196 9.64451 53.9642 9.65062C54.0676 9.65062 54.1649 9.65062 54.2683 9.65062C54.5602 9.64451 54.0858 9.58343 54.3777 9.66283C54.4872 9.69337 54.5906 9.71781 54.7 9.75445C54.9129 9.82775 54.6331 9.69948 54.8521 9.82775C55.2838 10.0721 55.5575 10.3347 55.9041 10.7317C56.2507 11.1288 55.819 10.579 56.0136 10.8722C56.0744 10.9577 56.1352 11.0432 56.196 11.1349C56.3176 11.3181 56.4332 11.5074 56.5365 11.6968C57.017 12.5397 57.2541 13.12 57.5643 13.9995C57.8562 14.818 58.1055 15.6487 58.3244 16.4916C58.5981 17.5421 58.8413 18.611 59.0116 19.686C59.1089 20.303 59.8812 20.645 60.4285 20.4984C61.0853 20.3152 61.3285 19.6922 61.2373 19.0752L61.2495 19.063Z" fill="#231F20"/>
<path d="M53.7452 33.5571C54.0797 35.7499 55.3324 38.022 57.0473 39.3963C58.7622 40.7706 60.8298 41.2165 62.9886 41.1127C65.3968 40.9966 67.8475 40.3736 69.8847 39.0421C71.3563 38.0831 72.9739 36.5928 73.2597 34.7543C73.357 34.1312 73.1016 33.5143 72.4509 33.3311C71.9036 33.1723 71.1252 33.5204 71.034 34.1435C70.9428 34.7115 70.8151 34.9803 70.432 35.4994C70.0914 35.9636 69.532 36.4828 69.0151 36.8493C67.434 37.961 65.5306 38.584 63.615 38.755C61.8636 38.9138 60.0758 38.8222 58.6223 37.7166C57.6494 36.9776 56.9926 35.9575 56.5122 34.8276C56.5791 34.9864 56.4453 34.6504 56.421 34.5954C56.3662 34.455 56.3176 34.3145 56.275 34.174C56.2081 33.9663 56.1473 33.7525 56.0926 33.5449C56.0439 33.3494 55.9953 33.1479 55.9649 32.9463C55.8737 32.3294 55.0953 31.9812 54.548 32.1339C53.8912 32.3172 53.6479 32.9341 53.7392 33.5571H53.7452Z" fill="#231F20"/>
<path d="M86.164 25.6411C90.0802 24.1813 93.9904 22.7215 97.9067 21.2617C99.1473 20.7975 98.9162 19.1117 97.6027 18.9834C94.9087 18.7269 92.2208 18.4703 89.5269 18.2138L90.3417 20.1928C92.1114 18.5436 93.881 16.8884 95.6506 15.2392C96.5689 14.3841 95.5776 13.1259 94.5256 13.303C90.6762 13.9504 86.8268 14.604 82.9774 15.2514L81.3173 15.5324C79.8578 15.7767 80.4781 18.0122 81.9315 17.7679C85.7808 17.1205 89.6302 16.4669 93.4796 15.8195L95.1398 15.5385L94.0148 13.6023C92.2451 15.2514 90.4755 16.9067 88.7059 18.5559C87.9093 19.2949 88.5904 20.4432 89.5208 20.5348C92.2147 20.7914 94.9026 21.0479 97.5966 21.3045L97.2925 19.0262C93.3762 20.486 89.466 21.9458 85.5498 23.4056C84.1693 23.9187 84.7653 26.1603 86.164 25.6411Z" fill="#231F20"/>
<path d="M37.4049 37.3442C33.361 36.7578 29.3109 36.1714 25.2669 35.5851L5.91054 32.7754C4.42673 32.5616 2.93684 32.3417 1.45304 32.128L1.72669 34.2474C3.1132 33.2091 4.49971 32.1707 5.88013 31.1262L15.7985 23.6806C19.8182 20.6633 23.8378 17.6459 27.8575 14.6286C31.3177 12.0327 34.7779 9.43678 38.2381 6.84088L41.6983 4.24498C42.2091 3.86018 42.8902 3.49981 43.3219 3.02339C43.3402 3.00506 43.3706 2.98674 43.3949 2.96842L42.8111 3.12722C44.4226 3.23106 46.0281 3.32879 47.6396 3.43262C49.1234 3.52424 49.1173 1.20931 47.6396 1.11769L44.7024 0.934455C44.003 0.891699 42.8658 0.604623 42.2212 0.983318C41.6739 1.30093 41.1692 1.77125 40.6645 2.15605C37.636 4.42822 34.6076 6.7065 31.5792 8.97868C27.2555 12.222 22.9378 15.4654 18.6141 18.7087C14.637 21.6955 10.6539 24.6823 6.67677 27.6691C4.66998 29.1778 2.65711 30.6743 0.656404 32.189C0.625998 32.2074 0.601673 32.2318 0.571267 32.2501C-0.109824 32.7632 -0.255772 34.2108 0.84492 34.3696C4.8889 34.956 8.93896 35.5423 12.9829 36.1287L32.3393 38.9384C33.8231 39.1521 35.313 39.372 36.7968 39.5858C37.4171 39.6774 38.0313 39.4331 38.2137 38.7734C38.3658 38.2298 38.0252 37.4358 37.4049 37.3503V37.3442Z" fill="#231F20"/>
<path d="M42.9689 35.5238L37.1006 38.4679L36.5411 85.4383C36.535 85.9941 36.8756 86.495 37.3925 86.6904L48.448 90.8439V39.9704L54.8515 34.3389L42.9628 35.5177L42.9689 35.5238Z" fill="#65DBBD"/>
<path d="M42.3855 34.5223C40.4273 35.5057 38.4753 36.483 36.5171 37.4663C36.1583 37.6496 35.9516 38.0771 35.9455 38.4681C35.9151 40.9174 35.8847 43.3606 35.8604 45.8099C35.7996 51.191 35.7327 56.5721 35.6719 61.9533C35.611 67.3344 35.5441 72.7156 35.4833 78.0967C35.4529 80.5338 35.3131 83.0014 35.3982 85.4385C35.4469 86.8983 36.4563 87.5641 37.6604 88.0222L40.7436 89.1827L47.6822 91.7908L48.1504 91.9679C48.8619 92.2367 49.6099 91.5465 49.6099 90.8502V39.9706L49.2694 40.7891C51.4039 38.9139 53.5384 37.0388 55.6728 35.1575C56.3904 34.5284 55.8431 33.0808 54.858 33.1785C50.893 33.5695 46.9342 33.9665 42.9693 34.3574C42.349 34.4185 41.8138 34.846 41.8138 35.5179C41.8138 36.0982 42.3429 36.7395 42.9693 36.6784C46.9342 36.2875 50.893 35.8905 54.858 35.4996L54.0431 33.5206C52.4133 34.956 50.7836 36.3852 49.1477 37.8206C48.6187 38.2909 47.5484 38.9201 47.3416 39.6591C47.2747 39.8973 47.2991 40.1722 47.2991 40.4104V88.01C47.2991 88.8956 47.2078 89.8362 47.2991 90.7158C47.2991 90.7524 47.2991 90.7952 47.2991 90.8319L48.7585 89.7141C46.9889 89.0483 45.2132 88.3825 43.4436 87.7168L39.7341 86.3242L38.3719 85.8111C38.1895 85.7439 37.8915 85.6889 37.7334 85.5729C37.7881 85.6156 37.6969 85.524 37.6969 85.3835C37.6969 85.2919 37.6969 85.2064 37.6969 85.1148L37.709 83.8626L37.7638 79.0312C37.8246 73.8394 37.8854 68.6537 37.9462 63.462L38.1408 47.2086C38.1651 45.2846 38.1895 43.3606 38.2077 41.4365C38.2199 40.502 38.3293 39.5064 38.2442 38.578C38.2442 38.5352 38.2442 38.4925 38.2442 38.4497L37.6726 39.4514C39.6307 38.4681 41.5828 37.4908 43.5409 36.5074C44.8666 35.8416 43.7051 33.8443 42.3733 34.504L42.3855 34.5223Z" fill="#231F20"/>
<path d="M61.2551 5.25252C64.7761 6.1504 68.291 7.05438 71.812 7.95225L73.2958 8.33095C74.7371 8.69743 75.3513 6.4619 73.91 6.09542C70.389 5.19755 66.8741 4.29357 63.3531 3.39569L61.8693 3.017C60.4281 2.65052 59.8139 4.88604 61.2551 5.25252Z" fill="#231F20"/>
<path d="M112.143 32.5128C116.892 28.9946 121.642 25.4825 126.397 21.9643C127.066 21.4696 127.741 20.9687 128.41 20.474C129.146 19.9304 129.194 18.5927 128.136 18.3545C122.627 17.1146 117.117 15.8747 111.608 14.6348C102.839 12.6619 94.0695 10.689 85.3066 8.71612C83.3119 8.27023 81.3234 7.81824 79.3288 7.37236C77.8814 7.04863 77.2672 9.27805 78.7146 9.60788C84.2241 10.8478 89.7336 12.0877 95.2432 13.3276C104.012 15.3005 112.781 17.2734 121.544 19.2463C123.539 19.6922 125.527 20.1442 127.522 20.59L127.248 18.4706C122.499 21.9888 117.75 25.5009 112.994 29.0191C112.325 29.5138 111.65 30.0147 110.981 30.5094C110.477 30.882 110.233 31.5111 110.568 32.0975C110.854 32.5984 111.644 32.8854 112.149 32.5128H112.143Z" fill="#231F20"/>
<path d="M86.7715 25.1831C93.9108 27.3515 101.05 29.5259 108.183 31.6943C109.205 32.0058 110.227 32.3173 111.248 32.6288L110.403 31.511V79.3671L110.744 78.5486C108.554 80.2894 106.359 82.0241 104.17 83.7649L106.14 84.5833V38.4619C106.14 37.9305 105.775 37.5091 105.295 37.3441C99.9251 35.5117 94.5554 33.6794 89.1918 31.8531C88.4439 31.5965 87.6898 31.34 86.9418 31.0835C85.531 30.6009 84.9289 32.8426 86.3276 33.319C91.6973 35.1514 97.067 36.9838 102.431 38.8101C103.179 39.0666 103.933 39.3231 104.681 39.5797L103.835 38.4619V84.5833C103.835 85.6767 105.058 85.9943 105.806 85.4018C107.399 84.1375 108.992 82.8731 110.585 81.6087C111.163 81.1506 111.862 80.7231 112.373 80.1917C112.702 79.8435 112.72 79.4709 112.72 79.0495V39.4819C112.72 36.8738 112.823 34.2352 112.72 31.6271C112.72 31.5904 112.72 31.5477 112.72 31.511C112.72 30.9918 112.361 30.5398 111.875 30.3933C104.735 28.2249 97.596 26.0505 90.4628 23.8821C89.4412 23.5706 88.4195 23.2591 87.3979 22.9476C85.9749 22.5139 85.3668 24.7495 86.7837 25.1831H86.7715Z" fill="#231F20"/>
<path d="M126.671 19.4721V42.6336L127.242 41.6319C122.505 45.034 117.768 48.4423 113.031 51.8444C112.344 52.3392 111.662 52.8278 110.975 53.3226C110.464 53.6891 110.233 54.3304 110.562 54.9107C110.848 55.4176 111.632 55.6864 112.143 55.326C117.227 51.6734 122.317 48.0147 127.401 44.3622C128.057 43.8857 128.939 43.4521 128.982 42.5542C129.024 41.6563 128.982 40.7035 128.982 39.7873V19.4721C128.982 17.9818 126.677 17.9756 126.677 19.4721H126.671Z" fill="#231F20"/>
<path d="M104.402 57.8608C99.5003 61.4279 94.6049 64.9949 89.7035 68.562C89.0163 69.0629 88.3231 69.5637 87.6359 70.0707L88.5238 69.9546C84.048 68.8246 79.5662 67.6947 75.0905 66.5647L53.6786 61.1591C52.0367 60.7438 50.4009 60.3284 48.759 59.9192C47.3177 59.5527 46.7035 61.7882 48.1448 62.1547C50.9482 62.8632 53.7455 63.5718 56.5489 64.2742C62.1679 65.6912 67.793 67.1144 73.412 68.5315C77.7662 69.6309 82.1264 70.7303 86.4805 71.8298C87.2589 72.0252 88.2015 72.4467 88.9312 71.9703C90.4637 70.9747 91.9049 69.808 93.3765 68.733C97.3536 65.8378 101.325 62.9427 105.302 60.0536L105.557 59.8642C106.068 59.4916 106.299 58.8625 105.971 58.2762C105.685 57.7753 104.894 57.4943 104.39 57.8608H104.402Z" fill="#231F20"/>
<path d="M36.8395 57.6289C32.8503 56.8471 28.861 56.0591 24.8718 55.2773L5.81338 51.527C4.36606 51.2399 2.91266 50.959 1.46534 50.6719L2.31063 51.7896V33.2519C2.31063 31.7615 0.00585938 31.7554 0.00585938 33.2519C0.00585938 38.6575 0.00585938 44.063 0.00585938 49.4686V51.7896C0.00585938 52.2661 0.358568 52.8097 0.851143 52.9074C4.84039 53.6892 8.82965 54.4772 12.8189 55.259L31.8773 59.0093C33.3246 59.2964 34.778 59.5773 36.2253 59.8644C37.6727 60.1515 38.299 57.9159 36.8395 57.6289Z" fill="#231F20"/>
<path d="M122.694 45.4919V65.5933C122.694 66.2285 122.761 66.9065 122.694 67.5356C122.627 68.1647 121.757 68.6534 121.307 69.0199L117.847 71.8479C115.639 73.6497 113.432 75.4516 111.218 77.2534C110.732 77.6505 110.817 78.475 111.218 78.8904C111.693 79.3729 112.368 79.2813 112.848 78.8904C114.746 77.3451 116.643 75.7936 118.54 74.2483L122.384 71.1088C123.022 70.5896 123.782 70.0949 124.311 69.4596C125.035 68.5862 124.998 67.5967 124.998 66.5522V45.4858C124.998 43.9954 122.694 43.9893 122.694 45.4858V45.4919Z" fill="#231F20"/>
<path d="M104.17 81.8348C98.934 86.5807 93.692 91.3266 88.4561 96.0725C87.7264 96.7322 86.9967 97.398 86.2669 98.0576L87.3919 97.7584C83.0378 96.7139 78.6837 95.6694 74.3356 94.6249C67.4031 92.9636 60.4645 91.2961 53.5319 89.6347C51.9447 89.256 50.3576 88.8712 48.7704 88.4925C47.3291 88.1444 46.7089 90.3799 48.1562 90.728C51.2089 91.461 54.2556 92.194 57.3083 92.9269C63.1767 94.3379 69.0389 95.7427 74.9073 97.1537L86.4615 99.9267C87.0027 100.055 87.4588 100.079 87.9392 99.6763C88.3284 99.3464 88.6933 98.9922 89.0703 98.6501L94.6225 93.6171C98.2772 90.3066 102.017 87.0694 105.593 83.6794C105.666 83.6122 105.739 83.5451 105.812 83.484C106.919 82.4823 105.283 80.8453 104.182 81.847L104.17 81.8348Z" fill="#231F20"/>
<path d="M2.18327 52.2172C2.35354 56.9448 2.51773 61.6663 2.688 66.3939C2.7853 69.0936 2.8826 71.7934 2.9799 74.487C2.99814 75 2.99814 75.5131 3.03463 76.0201C3.12585 77.3394 3.95897 78.2739 5.21169 78.6038C9.74825 79.7948 14.3091 80.8881 18.8518 82.0303L34.9608 86.0738C35.3196 86.1655 35.8183 86.3976 36.1953 86.3853C36.3656 86.3853 35.5203 85.8906 35.7818 86.1593C35.952 86.3365 36.171 86.4831 36.3656 86.6297C38.6399 88.3032 41.4373 89.3538 44.0278 90.3983C45.39 90.9419 46.7583 91.4611 48.1387 91.9558C48.8563 92.2185 49.5921 91.5405 49.5982 90.8381C49.6408 85.1027 49.6894 79.3673 49.732 73.6319C49.805 64.5065 49.8718 55.3873 49.9448 46.262C49.9631 44.1913 49.9752 42.1207 49.9935 40.0501L48.534 41.1679C51.1975 41.7482 53.8611 42.3223 56.5307 42.9026C62.0342 44.0936 67.5437 45.2908 73.0472 46.4818L86.8819 49.4809C87.6846 49.6519 88.4812 49.8596 89.29 50C89.9772 50.1222 90.3542 49.7679 90.8711 49.4198L93.2246 47.8256L105.284 39.6409L105.557 39.4577C106.779 38.627 105.63 36.6174 104.39 37.4542C99.9017 40.5021 95.4138 43.5439 90.9198 46.5918C90.2813 47.0255 89.6488 47.453 89.0103 47.8867L89.8982 47.7706C85.2947 46.775 80.6913 45.7733 76.0878 44.7777C68.7843 43.1957 61.4747 41.6138 54.1712 40.0257C52.4928 39.6592 50.8144 39.2988 49.136 38.9324C48.4063 38.7736 47.6826 39.2622 47.6765 40.0501C47.634 45.7855 47.5853 51.5209 47.5428 57.2563C47.4698 66.3817 47.4029 75.5009 47.3299 84.6262C47.3117 86.6968 47.2995 88.7675 47.2813 90.8381L48.7407 89.7203C45.1954 88.4376 41.5102 87.1305 38.2811 85.1393C38.0075 84.9683 37.746 84.785 37.4845 84.6018C37.3994 84.5407 37.7156 84.8034 37.4967 84.6018C37.4541 84.5652 37.4115 84.5224 37.369 84.4858C37.0588 84.2231 36.7973 84.1437 36.4324 84.0521C31.7256 82.8732 27.0249 81.6883 22.318 80.5095L6.74415 76.6003C6.39144 76.5148 5.95359 76.4721 5.61913 76.3194C5.21777 76.1361 5.30899 75.7574 5.29683 75.3665C5.21169 73.0333 5.13264 70.7061 5.0475 68.3729C4.85898 63.0956 4.67047 57.8122 4.48195 52.5349L4.46979 52.2172C4.41506 50.733 2.11029 50.7208 2.16502 52.2172H2.18327Z" fill="#231F20"/>
<path d="M38.9862 19.2829L23.2725 16.6503L28.3806 13.0771L45.116 15.3982L38.9862 19.2829Z" fill="#65DBBD"/>
<path d="M39.2898 18.1651C34.7107 17.3955 30.1255 16.632 25.5464 15.8624C24.8896 15.7525 24.2328 15.6425 23.5761 15.5326L23.8497 17.6521C25.5525 16.461 27.2552 15.27 28.9579 14.0789L28.0701 14.195C32.9472 14.8729 37.8243 15.5448 42.7014 16.2228L44.7994 16.516L44.5257 14.3965C42.4825 15.6914 40.4392 16.9863 38.3959 18.2812C37.1432 19.0752 38.2986 21.0787 39.5635 20.2846C41.6068 18.9897 43.65 17.6948 45.6933 16.3999C46.4413 15.9296 46.4656 14.4271 45.4197 14.2805C42.2575 13.8407 39.0952 13.4009 35.9269 12.9672L30.1985 12.1732C29.7424 12.1121 29.2802 12.0449 28.8241 11.9839C28.216 11.8984 27.8451 12.0449 27.3707 12.3809C25.8079 13.4742 24.245 14.5614 22.6882 15.6548C21.9646 16.1617 21.8977 17.591 22.9619 17.7742C27.541 18.5438 32.1262 19.3073 36.7053 20.0769C37.3621 20.1869 38.0189 20.2968 38.6756 20.4068C40.129 20.6511 40.7554 18.4156 39.2898 18.1713V18.1651Z" fill="#231F20"/>
<path d="M87.3311 52.2172V64.9585C87.3311 66.4488 89.6358 66.4549 89.6358 64.9585V52.2172C89.6358 50.7269 87.3311 50.7208 87.3311 52.2172Z" fill="#231F20"/>
<path d="M86.2979 73.6928V93.9713C86.2979 95.4617 88.6026 95.4678 88.6026 93.9713V73.6928C88.6026 72.2025 86.2979 72.1964 86.2979 73.6928Z" fill="#231F20"/>
<path d="M91.0225 47.2205V94.3436C91.0225 95.0888 92.1779 95.0888 92.1779 94.3436V47.2205C92.1779 46.4753 91.0225 46.4753 91.0225 47.2205Z" fill="#231F20"/>
<path d="M94.3311 44.9119V92.035C94.3311 92.7802 95.4865 92.7802 95.4865 92.035V44.9119C95.4865 44.1667 94.3311 44.1667 94.3311 44.9119Z" fill="#231F20"/>
<path d="M97.2559 42.67V88.7976C97.2559 89.5366 98.3991 89.5366 98.3991 88.7976V42.67C98.3991 41.931 97.2559 41.931 97.2559 42.67Z" fill="#231F20"/>
<path d="M100.723 40.3614V86.489C100.723 87.228 101.866 87.228 101.866 86.489V40.3614C101.866 39.6224 100.723 39.6224 100.723 40.3614Z" fill="#231F20"/>
<path d="M113.486 30.6251V76.7526C113.486 77.4917 114.63 77.4917 114.63 76.7526V30.6251C114.63 29.886 113.486 29.886 113.486 30.6251Z" fill="#231F20"/>
<path d="M116.411 27.962V74.0896C116.411 74.8286 117.554 74.8286 117.554 74.0896V27.962C117.554 27.2229 116.411 27.2229 116.411 27.962Z" fill="#231F20"/>
<path d="M118.717 25.3175V71.445C118.717 72.1841 119.86 72.1841 119.86 71.445V25.3175C119.86 24.5784 118.717 24.5784 118.717 25.3175Z" fill="#231F20"/>
<path d="M121.027 24.5235V70.6511C121.027 71.3901 122.171 71.3901 122.171 70.6511V24.5235C122.171 23.7845 121.027 23.7845 121.027 24.5235Z" fill="#231F20"/>
<path d="M123.849 22.9901C124.585 22.9901 124.585 21.8418 123.849 21.8418C123.113 21.8418 123.113 22.9901 123.849 22.9901Z" fill="#231F20"/>
<path d="M123.277 22.4161V48.3812C123.277 49.1202 124.421 49.1202 124.421 48.3812V22.4161C124.421 21.677 123.277 21.677 123.277 22.4161Z" fill="#231F20"/>
<path d="M124.834 21.6222V43.6781C124.834 44.4172 125.977 44.4172 125.977 43.6781V21.6222C125.977 20.8831 124.834 20.8831 124.834 21.6222Z" fill="#231F20"/>
<path d="M111.158 34.5832C109.236 36.4767 107.321 38.3701 105.399 40.2636L104.584 41.0699C104.061 41.5891 104.864 42.3953 105.393 41.8822C107.314 39.9888 109.23 38.0953 111.152 36.2018L111.967 35.3956C112.49 34.8764 111.687 34.0701 111.158 34.5832Z" fill="#231F20"/>
<path d="M111.157 38.6391C109.375 40.3493 107.593 42.0657 105.806 43.7759C105.55 44.0202 105.295 44.2645 105.039 44.5089C104.51 45.0219 105.313 45.8282 105.848 45.3212C107.63 43.611 109.412 41.8946 111.2 40.1844C111.455 39.9401 111.71 39.6958 111.966 39.4514C112.495 38.9384 111.692 38.1321 111.157 38.6391Z" fill="#231F20"/>
<path d="M111.158 42.2673C109.242 44.0814 107.326 45.8893 105.411 47.7034C105.137 47.966 104.858 48.2287 104.584 48.4913C104.049 48.9983 104.858 49.8107 105.393 49.3037C107.308 47.4896 109.224 45.6817 111.139 43.8676C111.413 43.6049 111.693 43.3423 111.966 43.0796C112.502 42.5727 111.693 41.7603 111.158 42.2673Z" fill="#231F20"/>
<path d="M111.158 46.8115C109.376 48.2713 107.594 49.725 105.813 51.1848C105.557 51.3924 105.302 51.6062 105.046 51.8139C104.809 52.0094 104.846 52.4186 105.046 52.6263C105.283 52.8645 105.612 52.8217 105.855 52.6263C107.637 51.1665 109.419 49.7128 111.2 48.2529C111.456 48.0453 111.711 47.8315 111.967 47.6238C112.204 47.4284 112.167 47.0191 111.967 46.8115C111.73 46.5732 111.401 46.616 111.158 46.8115Z" fill="#231F20"/>
<path d="M111.042 51.2704C109.157 52.7913 107.272 54.3122 105.381 55.8392C105.113 56.053 104.846 56.2729 104.578 56.4867C104.335 56.6821 104.377 57.0975 104.578 57.299C104.815 57.5372 105.144 57.4945 105.387 57.299C107.272 55.7781 109.157 54.2572 111.048 52.7302C111.316 52.5165 111.583 52.2966 111.851 52.0828C112.094 51.8873 112.052 51.472 111.851 51.2704C111.614 51.0322 111.286 51.075 111.042 51.2704Z" fill="#231F20"/>
<path d="M111.158 55.558C109.376 57.0117 107.594 58.4654 105.813 59.913C105.557 60.1207 105.302 60.3284 105.046 60.5361C104.809 60.7315 104.846 61.1407 105.046 61.3484C105.283 61.5866 105.612 61.5439 105.855 61.3484C107.637 59.8947 109.419 58.441 111.2 56.9934C111.456 56.7857 111.711 56.5781 111.967 56.3704C112.204 56.1749 112.167 55.7657 111.967 55.558C111.73 55.3198 111.401 55.3626 111.158 55.558Z" fill="#231F20"/>
<path d="M111.273 60.4507C109.491 61.6234 107.709 62.79 105.927 63.9628C105.672 64.1338 105.41 64.2987 105.155 64.4697C104.541 64.8728 105.112 65.8623 105.733 65.4592C107.514 64.2865 109.296 63.1198 111.078 61.9471C111.333 61.7761 111.595 61.6112 111.85 61.4401C112.465 61.037 111.893 60.0475 111.273 60.4507Z" fill="#231F20"/>
<path d="M111.273 64.4636C109.485 65.7279 107.703 66.9923 105.915 68.2505C105.66 68.4277 105.411 68.6109 105.155 68.788C104.9 68.9652 104.784 69.2889 104.948 69.5699C105.094 69.8203 105.477 69.9547 105.727 69.7775C107.515 68.5132 109.296 67.2488 111.084 65.9906C111.34 65.8134 111.589 65.6302 111.844 65.4531C112.1 65.2759 112.215 64.9522 112.051 64.6713C111.905 64.4208 111.522 64.2865 111.273 64.4636Z" fill="#231F20"/>
<path d="M111.273 68.7941C109.491 70.0768 107.709 71.3595 105.927 72.6422C105.672 72.8254 105.416 73.0087 105.161 73.198C104.906 73.3874 104.79 73.6989 104.954 73.9798C105.1 74.2303 105.483 74.3646 105.733 74.1875C107.514 72.9048 109.296 71.6222 111.078 70.3395C111.333 70.1562 111.589 69.973 111.844 69.7836C112.1 69.5943 112.215 69.2828 112.051 69.0018C111.905 68.7514 111.522 68.617 111.273 68.7941Z" fill="#231F20"/>
<path d="M111.042 72.5141C109.29 73.9373 107.539 75.3543 105.788 76.7775C105.538 76.979 105.289 77.1806 105.046 77.3822C104.803 77.5837 104.845 77.993 105.046 78.1945C105.283 78.4327 105.611 78.39 105.855 78.1945C107.606 76.7714 109.357 75.3543 111.109 73.9311C111.358 73.7296 111.607 73.528 111.851 73.3265C112.094 73.1249 112.051 72.7157 111.851 72.5141C111.613 72.2759 111.285 72.3186 111.042 72.5141Z" fill="#231F20"/>
<path d="M111.157 75.8366C109.369 77.2354 107.588 78.6341 105.8 80.0328L105.046 80.6253C104.803 80.8146 104.845 81.2361 105.046 81.4377C105.283 81.6759 105.611 81.627 105.855 81.4377C107.642 80.0389 109.424 78.6402 111.212 77.2415L111.966 76.649C112.209 76.4596 112.167 76.0382 111.966 75.8366C111.729 75.5984 111.401 75.6473 111.157 75.8366Z" fill="#231F20"/>
<path d="M40.2447 40.0071C41.7042 40.2148 43.1637 40.4286 44.6232 40.6362L45.2434 40.7279C45.5536 40.7706 45.8637 40.6546 45.9549 40.3247C46.0279 40.056 45.8637 39.659 45.5536 39.6101C44.0941 39.4024 42.6346 39.1887 41.1751 38.981L40.5549 38.8894C40.2447 38.8466 39.9346 38.9627 39.8434 39.2925C39.7704 39.5612 39.9346 39.9583 40.2447 40.0071Z" fill="#231F20"/>
</g>
<defs>
<clipPath id="clip0_1412_622">
<rect width="129" height="100" fill="white"/>
</clipPath>
</defs>
</svg>
